<?xml version="1.0" encoding="UTF-8"?>
<svg width="183px" height="35px" viewBox="0 0 183 35" version="1.1" xmlns="http://www.w3.org/2000/svg" xmlns:xlink="http://www.w3.org/1999/xlink">
    <!-- Generator: Sketch 52.6 (67491) - http://www.bohemiancoding.com/sketch -->
    <title>Group 5</title>
    <desc>Created with Sketch.</desc>
    <defs>
        <filter x="-17.8%" y="-590.0%" width="135.5%" height="1280.0%" filterUnits="objectBoundingBox" id="filter-1">
            <feOffset dx="0" dy="0" in="SourceAlpha" result="shadowOffsetOuter1"></feOffset>
            <feGaussianBlur stdDeviation="7.5" in="shadowOffsetOuter1" result="shadowBlurOuter1"></feGaussianBlur>
            <feColorMatrix values="0 0 0 0 0   0 0 0 0 1   0 0 0 0 0.635294118  0 0 0 0.15 0" type="matrix" in="shadowBlurOuter1" result="shadowMatrixOuter1"></feColorMatrix>
            <feMerge>
                <feMergeNode in="shadowMatrixOuter1"></feMergeNode>
                <feMergeNode in="SourceGraphic"></feMergeNode>
            </feMerge>
        </filter>
        <linearGradient x1="0%" y1="100%" x2="103.847419%" y2="100%" id="linearGradient-2">
            <stop stop-color="#00FFDB" stop-opacity="0" offset="0%"></stop>
            <stop stop-color="#42F78B" stop-opacity="0.774566474" offset="69.6186911%"></stop>
            <stop stop-color="#00FFB5" offset="100%"></stop>
        </linearGradient>
        <linearGradient x1="96.2164415%" y1="0%" x2="26.1198749%" y2="0%" id="linearGradient-3">
            <stop stop-color="#FFFFFF" offset="0%"></stop>
            <stop stop-color="#FFFFFF" stop-opacity="0" offset="100%"></stop>
        </linearGradient>
    </defs>
    <g id="Landing-Page" stroke="none" stroke-width="1" fill="none" fill-rule="evenodd">
        <g transform="translate(-129.000000, -449.000000)" fill-rule="nonzero" id="Page">
            <g>
                <g id="Display-1-page" transform="translate(0.000000, 177.000000)">
                    <g id="Group-9" style="mix-blend-mode: normal;" transform="translate(0.000000, 210.000000)">
                        <g id="Group-8" transform="translate(132.000000, 24.000000)">
                            <g id="Group-13">
                                <g id="Group-5" filter="url(#filter-1)" transform="translate(0.000000, 53.000000)">
                                    <path d="M2,4.5 C0.8954305,4.5 0,3.6045695 0,2.5 C0,1.3954305 0.8954305,0.5 2,0.5 L164,0.5 C165.104569,0.5 166,1.3954305 166,2.5 C166,3.6045695 165.104569,4.5 164,4.5 L2,4.5 Z" id="Path-3" fill="url(#linearGradient-2)"></path>
                                    <path d="M2,3.5 C1.44771525,3.5 1,3.05228475 1,2.5 C1,1.94771525 1.44771525,1.5 2,1.5 L164,1.5 C164.552285,1.5 165,1.94771525 165,2.5 C165,3.05228475 164.552285,3.5 164,3.5 L2,3.5 Z" id="Path-3" fill="url(#linearGradient-3)"></path>
                                </g>
                            </g>
                        </g>
                    </g>
                </g>
            </g>
        </g>
    </g>
</svg>