<svg id="Layer_2" data-name="Layer 2" xmlns="http://www.w3.org/2000/svg" viewBox="0 0 302.21 301.71"><defs><style>.cls-1{fill:none;stroke:#000;stroke-miterlimit:10}</style></defs><path class="cls-1" d="M.35 2.35l1-1M.35 17.35l16-16M.35 36.35l35-35M.35 59.35l58-58M.35 82.35L81.85.85M.35 111.35l111-111M.35 137.35l136-136M.35 165.35l164-164M.35 195.35l195-195M.35 228.35l226-226M.35 261.35l259.5-259.5M.35 295.35l293-293M29.35 301.35l271-271M65.35 301.35l236-236M97.35 301.35l203.5-203.5M130.35 301.35l170-170M164.35 301.35l136-136M199.35 301.35l101.5-101.5M232.35 301.35l68-72M258.35 301.35l43.5-43.5M288.35 301.35l11-11"/></svg>