<?xml version="1.0" encoding="UTF-8"?>
<svg width="21px" height="28px" viewBox="0 0 21 28" version="1.1" xmlns="http://www.w3.org/2000/svg" xmlns:xlink="http://www.w3.org/1999/xlink">
    <!-- Generator: Sketch 52.6 (67491) - http://www.bohemiancoding.com/sketch -->
    <title>Path</title>
    <desc>Created with Sketch.</desc>
    <g id="Page-1" stroke="none" stroke-width="1" fill="none" fill-rule="evenodd">
        <g id="Product-page" transform="translate(-1139.000000, -854.000000)" fill="#D8D8D8">
            <path d="M1159.48438,854.408203 L1159.48438,857.432617 C1158.72363,857.24707 1157.05371,857.098633 1155.75488,857.098633 C1151.41309,857.098633 1147.9248,859.288086 1146.5332,863.5 L1156.55273,863.5 L1156.55273,866.023438 L1145.97656,866.023438 C1145.9209,866.598633 1145.88379,867.229492 1145.88379,867.860352 C1145.88379,868.435547 1145.9209,868.992188 1145.97656,869.530273 L1156.55273,869.530273 L1156.55273,872.053711 L1146.47754,872.053711 C1147.85059,876.376953 1151.35742,878.603516 1155.75488,878.603516 C1157.05371,878.603516 1158.72363,878.492188 1159.48438,878.269531 L1159.48438,881.275391 C1158.76074,881.516602 1157.05371,881.665039 1155.75488,881.665039 C1149.6875,881.665039 1144.47363,878.473633 1142.91504,872.053711 L1139,872.053711 L1139,869.530273 L1142.50684,869.530273 C1142.45117,868.992188 1142.43262,868.416992 1142.43262,867.841797 C1142.43262,867.210938 1142.46973,866.617188 1142.50684,866.023438 L1139,866.023438 L1139,863.5 L1142.93359,863.5 C1144.54785,857.154297 1149.74316,854 1155.75488,854 C1157.05371,854 1158.76074,854.166992 1159.48438,854.408203 Z" id="Path"></path>
        </g>
    </g>
</svg>